<mxfile host="app.diagrams.net" modified="2023-03-19T13:39:59.725Z" agent="5.0 (Windows NT 10.0; Win64; x64) AppleWebKit/537.36 (KHTML, like Gecko) Chrome/111.0.0.0 Safari/537.36" etag="uPVQ_fe92LhInybVBK72" version="21.0.8" type="github">
  <diagram name="第 1 页" id="q1x8jVtYOU8OG4kGlQGc">
    <mxGraphModel dx="1235" dy="636" grid="0" gridSize="10" guides="1" tooltips="1" connect="1" arrows="1" fold="1" page="0" pageScale="1" pageWidth="827" pageHeight="1169" math="0" shadow="0">
      <root>
        <mxCell id="0" />
        <mxCell id="1" parent="0" />
        <mxCell id="hLA3p0NvsJu8MH2sGO7I-24" style="edgeStyle=orthogonalEdgeStyle;rounded=0;orthogonalLoop=1;jettySize=auto;html=1;" edge="1" parent="1" source="hLA3p0NvsJu8MH2sGO7I-1" target="hLA3p0NvsJu8MH2sGO7I-2">
          <mxGeometry relative="1" as="geometry">
            <Array as="points">
              <mxPoint x="509" y="132" />
              <mxPoint x="151" y="132" />
            </Array>
          </mxGeometry>
        </mxCell>
        <mxCell id="hLA3p0NvsJu8MH2sGO7I-25" style="edgeStyle=orthogonalEdgeStyle;rounded=0;orthogonalLoop=1;jettySize=auto;html=1;" edge="1" parent="1">
          <mxGeometry relative="1" as="geometry">
            <mxPoint x="508.79999999999995" y="101" as="sourcePoint" />
            <mxPoint x="395" y="181" as="targetPoint" />
            <Array as="points">
              <mxPoint x="509" y="132" />
              <mxPoint x="395" y="132" />
            </Array>
          </mxGeometry>
        </mxCell>
        <mxCell id="hLA3p0NvsJu8MH2sGO7I-26" style="edgeStyle=orthogonalEdgeStyle;rounded=0;orthogonalLoop=1;jettySize=auto;html=1;" edge="1" parent="1">
          <mxGeometry relative="1" as="geometry">
            <mxPoint x="508.79999999999995" y="101" as="sourcePoint" />
            <mxPoint x="637" y="181" as="targetPoint" />
            <Array as="points">
              <mxPoint x="509" y="132" />
              <mxPoint x="637" y="132" />
            </Array>
          </mxGeometry>
        </mxCell>
        <mxCell id="hLA3p0NvsJu8MH2sGO7I-27" style="edgeStyle=orthogonalEdgeStyle;rounded=0;orthogonalLoop=1;jettySize=auto;html=1;" edge="1" parent="1">
          <mxGeometry relative="1" as="geometry">
            <mxPoint x="508.79999999999995" y="100" as="sourcePoint" />
            <mxPoint x="873" y="180" as="targetPoint" />
            <Array as="points">
              <mxPoint x="509" y="132" />
              <mxPoint x="873" y="132" />
            </Array>
          </mxGeometry>
        </mxCell>
        <mxCell id="hLA3p0NvsJu8MH2sGO7I-1" value="&lt;font style=&quot;font-size: 16px;&quot;&gt;前台用户模块&lt;/font&gt;" style="rounded=0;whiteSpace=wrap;html=1;" vertex="1" parent="1">
          <mxGeometry x="448.77000000000004" y="42" width="120" height="60" as="geometry" />
        </mxCell>
        <mxCell id="hLA3p0NvsJu8MH2sGO7I-8" value="&lt;font style=&quot;font-size: 16px;&quot;&gt;影&lt;br&gt;片&lt;br&gt;查&lt;br&gt;询&lt;/font&gt;" style="rounded=0;whiteSpace=wrap;html=1;" vertex="1" parent="1">
          <mxGeometry x="128" y="293" width="46" height="135" as="geometry" />
        </mxCell>
        <mxCell id="hLA3p0NvsJu8MH2sGO7I-17" value="" style="group" vertex="1" connectable="0" parent="1">
          <mxGeometry x="774" y="293" width="192" height="135" as="geometry" />
        </mxCell>
        <mxCell id="hLA3p0NvsJu8MH2sGO7I-14" value="&lt;span style=&quot;font-size: 16px;&quot;&gt;订&lt;br&gt;单&lt;br&gt;查&lt;br&gt;询&lt;/span&gt;" style="rounded=0;whiteSpace=wrap;html=1;" vertex="1" parent="hLA3p0NvsJu8MH2sGO7I-17">
          <mxGeometry width="46" height="135" as="geometry" />
        </mxCell>
        <mxCell id="hLA3p0NvsJu8MH2sGO7I-15" value="&lt;span style=&quot;font-size: 16px;&quot;&gt;资&lt;br&gt;料&lt;br&gt;修&lt;br&gt;改&lt;/span&gt;" style="rounded=0;whiteSpace=wrap;html=1;" vertex="1" parent="hLA3p0NvsJu8MH2sGO7I-17">
          <mxGeometry x="76" width="46" height="135" as="geometry" />
        </mxCell>
        <mxCell id="hLA3p0NvsJu8MH2sGO7I-16" value="&lt;span style=&quot;font-size: 16px;&quot;&gt;评&lt;br&gt;论&lt;br&gt;查&lt;br&gt;询&lt;/span&gt;" style="rounded=0;whiteSpace=wrap;html=1;" vertex="1" parent="hLA3p0NvsJu8MH2sGO7I-17">
          <mxGeometry x="146" width="46" height="135" as="geometry" />
        </mxCell>
        <mxCell id="hLA3p0NvsJu8MH2sGO7I-18" value="" style="group" vertex="1" connectable="0" parent="1">
          <mxGeometry x="539" y="293" width="192" height="135" as="geometry" />
        </mxCell>
        <mxCell id="hLA3p0NvsJu8MH2sGO7I-19" value="&lt;span style=&quot;font-size: 16px;&quot;&gt;电&lt;br&gt;影&lt;br&gt;选&lt;br&gt;择&lt;/span&gt;" style="rounded=0;whiteSpace=wrap;html=1;" vertex="1" parent="hLA3p0NvsJu8MH2sGO7I-18">
          <mxGeometry width="46" height="135" as="geometry" />
        </mxCell>
        <mxCell id="hLA3p0NvsJu8MH2sGO7I-20" value="&lt;span style=&quot;font-size: 16px;&quot;&gt;场&lt;br&gt;次&lt;br&gt;选&lt;br&gt;择&lt;/span&gt;" style="rounded=0;whiteSpace=wrap;html=1;" vertex="1" parent="hLA3p0NvsJu8MH2sGO7I-18">
          <mxGeometry x="76" width="46" height="135" as="geometry" />
        </mxCell>
        <mxCell id="hLA3p0NvsJu8MH2sGO7I-21" value="&lt;span style=&quot;font-size: 16px;&quot;&gt;座&lt;br&gt;位&lt;br&gt;选&lt;br&gt;择&lt;/span&gt;" style="rounded=0;whiteSpace=wrap;html=1;" vertex="1" parent="hLA3p0NvsJu8MH2sGO7I-18">
          <mxGeometry x="146" width="46" height="135" as="geometry" />
        </mxCell>
        <mxCell id="hLA3p0NvsJu8MH2sGO7I-22" value="" style="group" vertex="1" connectable="0" parent="1">
          <mxGeometry x="84.53654743390358" y="182" width="848.4634525660964" height="60" as="geometry" />
        </mxCell>
        <mxCell id="hLA3p0NvsJu8MH2sGO7I-5" value="&lt;font style=&quot;font-size: 16px;&quot;&gt;个人信息模块&lt;/font&gt;" style="rounded=0;whiteSpace=wrap;html=1;container=0;" vertex="1" parent="hLA3p0NvsJu8MH2sGO7I-22">
          <mxGeometry x="728.4634525660964" width="120" height="60" as="geometry" />
        </mxCell>
        <mxCell id="hLA3p0NvsJu8MH2sGO7I-2" value="&lt;font style=&quot;font-size: 16px;&quot;&gt;信息查询模块&lt;/font&gt;" style="rounded=0;whiteSpace=wrap;html=1;container=0;" vertex="1" parent="hLA3p0NvsJu8MH2sGO7I-22">
          <mxGeometry width="133.4370139968896" height="60" as="geometry" />
        </mxCell>
        <mxCell id="hLA3p0NvsJu8MH2sGO7I-3" value="&lt;font style=&quot;font-size: 16px;&quot;&gt;点评模块&lt;/font&gt;" style="rounded=0;whiteSpace=wrap;html=1;container=0;" vertex="1" parent="hLA3p0NvsJu8MH2sGO7I-22">
          <mxGeometry x="243.5225505443235" width="133.4370139968896" height="60" as="geometry" />
        </mxCell>
        <mxCell id="hLA3p0NvsJu8MH2sGO7I-4" value="&lt;font style=&quot;font-size: 16px;&quot;&gt;购票模块&lt;/font&gt;" style="rounded=0;whiteSpace=wrap;html=1;container=0;" vertex="1" parent="hLA3p0NvsJu8MH2sGO7I-22">
          <mxGeometry x="485.9331259720062" width="133.4370139968896" height="60" as="geometry" />
        </mxCell>
        <mxCell id="hLA3p0NvsJu8MH2sGO7I-23" value="" style="group" vertex="1" connectable="0" parent="1">
          <mxGeometry x="306" y="293" width="181.5" height="135" as="geometry" />
        </mxCell>
        <mxCell id="hLA3p0NvsJu8MH2sGO7I-9" value="&lt;font style=&quot;font-size: 16px;&quot;&gt;影&lt;br&gt;片&lt;br&gt;评&lt;br&gt;论&lt;br&gt;&lt;/font&gt;" style="rounded=0;whiteSpace=wrap;html=1;" vertex="1" parent="hLA3p0NvsJu8MH2sGO7I-23">
          <mxGeometry width="46" height="135" as="geometry" />
        </mxCell>
        <mxCell id="hLA3p0NvsJu8MH2sGO7I-10" value="&lt;font style=&quot;font-size: 16px;&quot;&gt;互&lt;br&gt;动&lt;br&gt;交&lt;br&gt;流&lt;br&gt;&lt;/font&gt;" style="rounded=0;whiteSpace=wrap;html=1;" vertex="1" parent="hLA3p0NvsJu8MH2sGO7I-23">
          <mxGeometry x="135.5" width="46" height="135" as="geometry" />
        </mxCell>
        <mxCell id="hLA3p0NvsJu8MH2sGO7I-28" style="edgeStyle=orthogonalEdgeStyle;rounded=0;orthogonalLoop=1;jettySize=auto;html=1;entryX=0.5;entryY=0;entryDx=0;entryDy=0;" edge="1" parent="1" source="hLA3p0NvsJu8MH2sGO7I-2" target="hLA3p0NvsJu8MH2sGO7I-8">
          <mxGeometry relative="1" as="geometry" />
        </mxCell>
        <mxCell id="hLA3p0NvsJu8MH2sGO7I-29" style="edgeStyle=orthogonalEdgeStyle;rounded=0;orthogonalLoop=1;jettySize=auto;html=1;" edge="1" parent="1" source="hLA3p0NvsJu8MH2sGO7I-3" target="hLA3p0NvsJu8MH2sGO7I-9">
          <mxGeometry relative="1" as="geometry" />
        </mxCell>
        <mxCell id="hLA3p0NvsJu8MH2sGO7I-30" style="edgeStyle=orthogonalEdgeStyle;rounded=0;orthogonalLoop=1;jettySize=auto;html=1;" edge="1" parent="1" source="hLA3p0NvsJu8MH2sGO7I-3" target="hLA3p0NvsJu8MH2sGO7I-10">
          <mxGeometry relative="1" as="geometry" />
        </mxCell>
        <mxCell id="hLA3p0NvsJu8MH2sGO7I-31" style="edgeStyle=orthogonalEdgeStyle;rounded=0;orthogonalLoop=1;jettySize=auto;html=1;entryX=0.5;entryY=0;entryDx=0;entryDy=0;" edge="1" parent="1" source="hLA3p0NvsJu8MH2sGO7I-4" target="hLA3p0NvsJu8MH2sGO7I-20">
          <mxGeometry relative="1" as="geometry" />
        </mxCell>
        <mxCell id="hLA3p0NvsJu8MH2sGO7I-32" style="edgeStyle=orthogonalEdgeStyle;rounded=0;orthogonalLoop=1;jettySize=auto;html=1;" edge="1" parent="1" source="hLA3p0NvsJu8MH2sGO7I-4" target="hLA3p0NvsJu8MH2sGO7I-19">
          <mxGeometry relative="1" as="geometry" />
        </mxCell>
        <mxCell id="hLA3p0NvsJu8MH2sGO7I-33" style="edgeStyle=orthogonalEdgeStyle;rounded=0;orthogonalLoop=1;jettySize=auto;html=1;" edge="1" parent="1" source="hLA3p0NvsJu8MH2sGO7I-4" target="hLA3p0NvsJu8MH2sGO7I-21">
          <mxGeometry relative="1" as="geometry" />
        </mxCell>
        <mxCell id="hLA3p0NvsJu8MH2sGO7I-35" style="edgeStyle=orthogonalEdgeStyle;rounded=0;orthogonalLoop=1;jettySize=auto;html=1;entryX=0.5;entryY=0;entryDx=0;entryDy=0;" edge="1" parent="1" source="hLA3p0NvsJu8MH2sGO7I-5" target="hLA3p0NvsJu8MH2sGO7I-15">
          <mxGeometry relative="1" as="geometry" />
        </mxCell>
        <mxCell id="hLA3p0NvsJu8MH2sGO7I-36" style="edgeStyle=orthogonalEdgeStyle;rounded=0;orthogonalLoop=1;jettySize=auto;html=1;" edge="1" parent="1" source="hLA3p0NvsJu8MH2sGO7I-5" target="hLA3p0NvsJu8MH2sGO7I-14">
          <mxGeometry relative="1" as="geometry" />
        </mxCell>
        <mxCell id="hLA3p0NvsJu8MH2sGO7I-37" style="edgeStyle=orthogonalEdgeStyle;rounded=0;orthogonalLoop=1;jettySize=auto;html=1;" edge="1" parent="1" source="hLA3p0NvsJu8MH2sGO7I-5" target="hLA3p0NvsJu8MH2sGO7I-16">
          <mxGeometry relative="1" as="geometry" />
        </mxCell>
      </root>
    </mxGraphModel>
  </diagram>
</mxfile>
